<mxfile host="Electron" agent="Mozilla/5.0 (Windows NT 10.0; Win64; x64) AppleWebKit/537.36 (KHTML, like Gecko) draw.io/28.0.4 Chrome/138.0.7204.97 Electron/37.2.1 Safari/537.36" version="28.0.4">
  <diagram name="Page-1" id="UORcnBnTc6YaHIllJ5zd">
    <mxGraphModel dx="872" dy="547" grid="1" gridSize="10" guides="1" tooltips="1" connect="1" arrows="1" fold="1" page="1" pageScale="1" pageWidth="1200" pageHeight="1920" math="0" shadow="0">
      <root>
        <mxCell id="0" />
        <mxCell id="1" parent="0" />
        <mxCell id="JLolqVZAsPyRfIBeNvYw-1" value="" style="rounded=0;whiteSpace=wrap;html=1;dashed=1;fillColor=none;" parent="1" vertex="1">
          <mxGeometry x="19" y="350" width="120" height="400" as="geometry" />
        </mxCell>
        <mxCell id="JLolqVZAsPyRfIBeNvYw-2" value="&lt;font style=&quot;font-size: 15px;&quot;&gt;&lt;i&gt;&lt;b&gt;Source&lt;/b&gt;&lt;/i&gt;&lt;/font&gt;" style="text;html=1;align=center;verticalAlign=middle;whiteSpace=wrap;rounded=0;glass=0;labelBackgroundColor=default;" parent="1" vertex="1">
          <mxGeometry x="49" y="330" width="60" height="30" as="geometry" />
        </mxCell>
        <mxCell id="JLolqVZAsPyRfIBeNvYw-3" value="" style="image;aspect=fixed;html=1;points=[];align=center;fontSize=12;image=img/lib/azure2/general/Folder_Blank.svg;" parent="1" vertex="1">
          <mxGeometry x="53" y="377" width="50" height="40.58" as="geometry" />
        </mxCell>
        <mxCell id="JLolqVZAsPyRfIBeNvYw-4" value="" style="image;aspect=fixed;html=1;points=[];align=center;fontSize=12;image=img/lib/azure2/general/File.svg;" parent="1" vertex="1">
          <mxGeometry x="83" y="392.93" width="20" height="24.65" as="geometry" />
        </mxCell>
        <mxCell id="JLolqVZAsPyRfIBeNvYw-5" value="CRM" style="text;html=1;align=center;verticalAlign=middle;whiteSpace=wrap;rounded=0;" parent="1" vertex="1">
          <mxGeometry x="53" y="417" width="50" height="30.58" as="geometry" />
        </mxCell>
        <mxCell id="JLolqVZAsPyRfIBeNvYw-6" value="" style="image;aspect=fixed;html=1;points=[];align=center;fontSize=12;image=img/lib/azure2/general/Folder_Blank.svg;" parent="1" vertex="1">
          <mxGeometry x="51" y="465" width="50" height="40.58" as="geometry" />
        </mxCell>
        <mxCell id="JLolqVZAsPyRfIBeNvYw-7" value="" style="image;aspect=fixed;html=1;points=[];align=center;fontSize=12;image=img/lib/azure2/general/File.svg;" parent="1" vertex="1">
          <mxGeometry x="81" y="480.93" width="20" height="24.65" as="geometry" />
        </mxCell>
        <mxCell id="JLolqVZAsPyRfIBeNvYw-8" value="ERP" style="text;html=1;align=center;verticalAlign=middle;whiteSpace=wrap;rounded=0;" parent="1" vertex="1">
          <mxGeometry x="51" y="505.58000000000004" width="50" height="30" as="geometry" />
        </mxCell>
        <mxCell id="JLolqVZAsPyRfIBeNvYw-9" value="--------------" style="text;html=1;align=center;verticalAlign=middle;whiteSpace=wrap;rounded=0;" parent="1" vertex="1">
          <mxGeometry x="48" y="570" width="60" height="30" as="geometry" />
        </mxCell>
        <mxCell id="JLolqVZAsPyRfIBeNvYw-11" value="&lt;font style=&quot;&quot;&gt;&lt;b style=&quot;&quot;&gt;&lt;font style=&quot;font-size: 11px;&quot;&gt;Object type &lt;/font&gt;&lt;/b&gt;&lt;b style=&quot;font-size: 13px;&quot;&gt;: &lt;/b&gt;&lt;font style=&quot;font-size: 11px;&quot;&gt;CSV files&lt;/font&gt;&lt;/font&gt;" style="text;html=1;align=center;verticalAlign=middle;whiteSpace=wrap;rounded=0;" parent="1" vertex="1">
          <mxGeometry x="19" y="630" width="120" height="30" as="geometry" />
        </mxCell>
        <mxCell id="JLolqVZAsPyRfIBeNvYw-12" value="&lt;font style=&quot;&quot;&gt;&lt;b style=&quot;&quot;&gt;&lt;font style=&quot;font-size: 11px;&quot;&gt;Interface&amp;nbsp;&lt;/font&gt;&lt;/b&gt;&lt;b style=&quot;font-size: 13px;&quot;&gt;: &lt;/b&gt;&lt;font style=&quot;font-size: 11px;&quot;&gt;Files in folders&lt;/font&gt;&lt;/font&gt;" style="text;html=1;align=center;verticalAlign=middle;whiteSpace=wrap;rounded=0;" parent="1" vertex="1">
          <mxGeometry x="16" y="660" width="120" height="30" as="geometry" />
        </mxCell>
        <mxCell id="JLolqVZAsPyRfIBeNvYw-13" value="" style="rounded=0;whiteSpace=wrap;html=1;fontColor=default;fillColor=none;dashed=1;strokeColor=default;" parent="1" vertex="1">
          <mxGeometry x="180" y="310" width="520" height="480" as="geometry" />
        </mxCell>
        <mxCell id="JLolqVZAsPyRfIBeNvYw-14" value="" style="rounded=0;whiteSpace=wrap;html=1;dashed=1;fillColor=none;" parent="1" vertex="1">
          <mxGeometry x="740" y="350" width="130" height="400" as="geometry" />
        </mxCell>
        <mxCell id="JLolqVZAsPyRfIBeNvYw-15" value="&lt;font style=&quot;font-size: 15px;&quot;&gt;&lt;i&gt;&lt;b&gt;Consume&lt;/b&gt;&lt;/i&gt;&lt;/font&gt;" style="text;html=1;align=center;verticalAlign=middle;whiteSpace=wrap;rounded=0;glass=0;labelBackgroundColor=default;fillColor=default;" parent="1" vertex="1">
          <mxGeometry x="780" y="330" width="60" height="30" as="geometry" />
        </mxCell>
        <mxCell id="JLolqVZAsPyRfIBeNvYw-25" value="" style="rounded=0;whiteSpace=wrap;html=1;dashed=1;fillColor=none;fontColor=#000000;strokeColor=#FF9933;" parent="1" vertex="1">
          <mxGeometry x="200" y="350" width="130" height="430" as="geometry" />
        </mxCell>
        <mxCell id="JLolqVZAsPyRfIBeNvYw-26" value="&lt;span style=&quot;font-size: 15px;&quot;&gt;&lt;b&gt;&lt;i&gt;Bronze&lt;/i&gt;&lt;/b&gt;&lt;/span&gt;" style="text;html=1;align=center;verticalAlign=middle;whiteSpace=wrap;rounded=0;glass=0;labelBackgroundColor=none;fillColor=#FF9933;fontColor=#FFFFFF;strokeColor=#C73500;" parent="1" vertex="1">
          <mxGeometry x="245" y="330" width="60" height="30" as="geometry" />
        </mxCell>
        <mxCell id="JLolqVZAsPyRfIBeNvYw-33" value="--------------" style="text;html=1;align=center;verticalAlign=middle;whiteSpace=wrap;rounded=0;" parent="1" vertex="1">
          <mxGeometry x="200" y="492" width="130" height="20" as="geometry" />
        </mxCell>
        <mxCell id="JLolqVZAsPyRfIBeNvYw-36" value="" style="rounded=0;whiteSpace=wrap;html=1;dashed=1;fillColor=none;strokeColor=#A7A7A7;labelBackgroundColor=none;" parent="1" vertex="1">
          <mxGeometry x="360" y="348" width="135" height="432" as="geometry" />
        </mxCell>
        <mxCell id="JLolqVZAsPyRfIBeNvYw-37" value="&lt;i style=&quot;font-size: 15px;&quot;&gt;&lt;b&gt;Silver&lt;/b&gt;&lt;/i&gt;" style="text;html=1;align=center;verticalAlign=middle;whiteSpace=wrap;rounded=0;glass=0;labelBackgroundColor=none;fillColor=#A7A7A7;" parent="1" vertex="1">
          <mxGeometry x="383.5" y="326" width="93" height="30" as="geometry" />
        </mxCell>
        <mxCell id="JLolqVZAsPyRfIBeNvYw-44" value="--------------" style="text;html=1;align=center;verticalAlign=middle;whiteSpace=wrap;rounded=0;" parent="1" vertex="1">
          <mxGeometry x="360" y="484" width="130" height="30" as="geometry" />
        </mxCell>
        <mxCell id="JLolqVZAsPyRfIBeNvYw-47" value="" style="rounded=0;whiteSpace=wrap;html=1;dashed=1;fillColor=none;strokeColor=#FFFF33;" parent="1" vertex="1">
          <mxGeometry x="536" y="348" width="140" height="432" as="geometry" />
        </mxCell>
        <mxCell id="JLolqVZAsPyRfIBeNvYw-48" value="&lt;font style=&quot;font-size: 13px;&quot;&gt;&lt;b&gt;&lt;i&gt;DATA WareHouse&lt;/i&gt;&lt;/b&gt;&lt;/font&gt;" style="text;html=1;align=center;verticalAlign=middle;whiteSpace=wrap;rounded=0;fillColor=default;" parent="1" vertex="1">
          <mxGeometry x="360" y="290" width="160" height="30" as="geometry" />
        </mxCell>
        <mxCell id="JLolqVZAsPyRfIBeNvYw-49" value="&lt;i style=&quot;forced-color-adjust: none; color: rgb(255, 255, 255); font-family: Helvetica; font-size: 15px; font-variant-ligatures: normal; font-variant-caps: normal; font-weight: 400; letter-spacing: normal; orphans: 2; text-indent: 0px; text-transform: none; widows: 2; word-spacing: 0px; -webkit-text-stroke-width: 0px; white-space: normal; text-decoration-thickness: initial; text-decoration-style: initial; text-decoration-color: initial; box-shadow: none !important;&quot;&gt;&lt;b style=&quot;forced-color-adjust: none; box-shadow: none !important;&quot;&gt;Gold&lt;/b&gt;&lt;/i&gt;" style="text;whiteSpace=wrap;html=1;align=center;fillColor=#FFFF33;labelBackgroundColor=#FFFF33;" parent="1" vertex="1">
          <mxGeometry x="561" y="326" width="70" height="34" as="geometry" />
        </mxCell>
        <mxCell id="JLolqVZAsPyRfIBeNvYw-50" value="" style="image;aspect=fixed;perimeter=ellipsePerimeter;html=1;align=center;shadow=0;dashed=0;spacingTop=3;image=img/lib/active_directory/databases.svg;imageBackground=none;labelBackgroundColor=none;" parent="1" vertex="1">
          <mxGeometry x="235" y="370.96000000000004" width="70" height="68.6" as="geometry" />
        </mxCell>
        <mxCell id="JLolqVZAsPyRfIBeNvYw-51" value="" style="image;aspect=fixed;perimeter=ellipsePerimeter;html=1;align=center;shadow=0;dashed=0;spacingTop=3;image=img/lib/active_directory/databases.svg;imageBackground=none;" parent="1" vertex="1">
          <mxGeometry x="395" y="370.96000000000004" width="70" height="68.6" as="geometry" />
        </mxCell>
        <mxCell id="JLolqVZAsPyRfIBeNvYw-52" value="" style="image;aspect=fixed;perimeter=ellipsePerimeter;html=1;align=center;shadow=0;dashed=0;spacingTop=3;image=img/lib/active_directory/databases.svg;imageBackground=none;" parent="1" vertex="1">
          <mxGeometry x="566" y="370.96" width="70" height="68.6" as="geometry" />
        </mxCell>
        <mxCell id="JLolqVZAsPyRfIBeNvYw-53" value="--------------" style="text;html=1;align=center;verticalAlign=middle;whiteSpace=wrap;rounded=0;" parent="1" vertex="1">
          <mxGeometry x="531" y="484" width="140" height="30" as="geometry" />
        </mxCell>
        <mxCell id="JLolqVZAsPyRfIBeNvYw-55" value="RAW Data" style="text;html=1;align=center;verticalAlign=middle;whiteSpace=wrap;rounded=0;fontStyle=1;fillColor=none;" parent="1" vertex="1">
          <mxGeometry x="230" y="458.51" width="80" height="22.42" as="geometry" />
        </mxCell>
        <mxCell id="JLolqVZAsPyRfIBeNvYw-57" value="&lt;b&gt;Cleaned Data&amp;nbsp;&lt;/b&gt;" style="text;html=1;align=center;verticalAlign=middle;whiteSpace=wrap;rounded=0;" parent="1" vertex="1">
          <mxGeometry x="380" y="450.93" width="110" height="30" as="geometry" />
        </mxCell>
        <mxCell id="JLolqVZAsPyRfIBeNvYw-58" value="&lt;b&gt;Business Ready Data&lt;/b&gt;" style="text;html=1;align=center;verticalAlign=middle;whiteSpace=wrap;rounded=0;" parent="1" vertex="1">
          <mxGeometry x="541" y="447.58000000000004" width="130" height="30" as="geometry" />
        </mxCell>
        <mxCell id="JLolqVZAsPyRfIBeNvYw-59" value="&lt;b&gt;Object type : &lt;/b&gt;table" style="text;html=1;align=center;verticalAlign=middle;whiteSpace=wrap;rounded=0;" parent="1" vertex="1">
          <mxGeometry x="200" y="525" width="130" height="20" as="geometry" />
        </mxCell>
        <mxCell id="JLolqVZAsPyRfIBeNvYw-70" value="&lt;b&gt;Object type : &lt;/b&gt;table" style="text;html=1;align=center;verticalAlign=middle;whiteSpace=wrap;rounded=0;" parent="1" vertex="1">
          <mxGeometry x="360" y="510.58" width="130" height="20" as="geometry" />
        </mxCell>
        <mxCell id="JLolqVZAsPyRfIBeNvYw-71" value="&lt;b&gt;Object type : &lt;/b&gt;Values" style="text;html=1;align=center;verticalAlign=middle;whiteSpace=wrap;rounded=0;" parent="1" vertex="1">
          <mxGeometry x="536" y="520" width="140" height="20" as="geometry" />
        </mxCell>
        <mxCell id="JLolqVZAsPyRfIBeNvYw-72" value="&lt;ul&gt;&lt;li&gt;&lt;span style=&quot;background-color: transparent; color: light-dark(rgb(0, 0, 0), rgb(255, 255, 255));&quot;&gt;Batch processing&amp;nbsp;&lt;/span&gt;&lt;/li&gt;&lt;li&gt;&lt;span style=&quot;background-color: transparent; color: light-dark(rgb(0, 0, 0), rgb(255, 255, 255));&quot;&gt;Full Load&lt;/span&gt;&lt;/li&gt;&lt;li&gt;Truncate &amp;amp; insert&lt;/li&gt;&lt;/ul&gt;" style="text;strokeColor=none;fillColor=none;html=1;verticalAlign=middle;overflow=hidden;whiteSpace=wrap;" parent="1" vertex="1">
          <mxGeometry x="180" y="580" width="140" height="60" as="geometry" />
        </mxCell>
        <mxCell id="JLolqVZAsPyRfIBeNvYw-73" value="&lt;font style=&quot;font-size: 15px;&quot;&gt;load&lt;/font&gt;" style="text;strokeColor=none;fillColor=none;html=1;fontSize=24;fontStyle=1;verticalAlign=middle;align=center;" parent="1" vertex="1">
          <mxGeometry x="199" y="558" width="55" height="30" as="geometry" />
        </mxCell>
        <mxCell id="JLolqVZAsPyRfIBeNvYw-74" value="&lt;b&gt;No Transformations&lt;/b&gt;" style="text;html=1;align=center;verticalAlign=middle;whiteSpace=wrap;rounded=0;" parent="1" vertex="1">
          <mxGeometry x="200" y="660" width="130" height="30" as="geometry" />
        </mxCell>
        <mxCell id="JLolqVZAsPyRfIBeNvYw-75" value="&lt;b&gt;&lt;font style=&quot;font-size: 13px;&quot;&gt;Data Mode&lt;/font&gt;l : None&amp;nbsp;&lt;/b&gt;" style="text;html=1;align=center;verticalAlign=middle;whiteSpace=wrap;rounded=0;" parent="1" vertex="1">
          <mxGeometry x="205" y="720" width="120" height="30" as="geometry" />
        </mxCell>
        <mxCell id="JLolqVZAsPyRfIBeNvYw-76" value="&lt;ul&gt;&lt;li&gt;&lt;span style=&quot;background-color: transparent; color: light-dark(rgb(0, 0, 0), rgb(255, 255, 255));&quot;&gt;Batch processing&amp;nbsp;&lt;/span&gt;&lt;/li&gt;&lt;li&gt;&lt;span style=&quot;background-color: transparent; color: light-dark(rgb(0, 0, 0), rgb(255, 255, 255));&quot;&gt;Full Load&lt;/span&gt;&lt;/li&gt;&lt;li&gt;Truncate &amp;amp; insert&lt;/li&gt;&lt;/ul&gt;" style="text;strokeColor=none;fillColor=none;html=1;verticalAlign=middle;overflow=hidden;whiteSpace=wrap;" parent="1" vertex="1">
          <mxGeometry x="340" y="560" width="140" height="60" as="geometry" />
        </mxCell>
        <mxCell id="JLolqVZAsPyRfIBeNvYw-77" value="&lt;font style=&quot;font-size: 15px;&quot;&gt;load&lt;/font&gt;" style="text;strokeColor=none;fillColor=none;html=1;fontSize=24;fontStyle=1;verticalAlign=middle;align=center;" parent="1" vertex="1">
          <mxGeometry x="360" y="540" width="55" height="20" as="geometry" />
        </mxCell>
        <mxCell id="JLolqVZAsPyRfIBeNvYw-78" value="&lt;b&gt;&lt;font style=&quot;font-size: 13px;&quot;&gt;Data Mode&lt;/font&gt;l : None&amp;nbsp;&lt;/b&gt;" style="text;html=1;align=center;verticalAlign=middle;whiteSpace=wrap;rounded=0;" parent="1" vertex="1">
          <mxGeometry x="370" y="740" width="120" height="30" as="geometry" />
        </mxCell>
        <mxCell id="JLolqVZAsPyRfIBeNvYw-79" value="&lt;ul&gt;&lt;li&gt;&lt;span style=&quot;background-color: transparent; color: light-dark(rgb(0, 0, 0), rgb(255, 255, 255));&quot;&gt;Data Cleaning&amp;nbsp;&lt;/span&gt;&lt;/li&gt;&lt;li&gt;Data Standerization&lt;/li&gt;&lt;li&gt;Data Normalization&lt;/li&gt;&lt;li&gt;Derrived Column&amp;nbsp;&lt;/li&gt;&lt;li&gt;Data Enchriment&lt;/li&gt;&lt;/ul&gt;" style="text;strokeColor=none;fillColor=none;html=1;verticalAlign=middle;overflow=hidden;whiteSpace=wrap;" parent="1" vertex="1">
          <mxGeometry x="340" y="650" width="170" height="90" as="geometry" />
        </mxCell>
        <mxCell id="JLolqVZAsPyRfIBeNvYw-80" value="&lt;font style=&quot;font-size: 15px;&quot;&gt;Transfromations&lt;/font&gt;" style="text;strokeColor=none;fillColor=none;html=1;fontSize=24;fontStyle=1;verticalAlign=middle;align=center;" parent="1" vertex="1">
          <mxGeometry x="357.5" y="630" width="135" height="20" as="geometry" />
        </mxCell>
        <mxCell id="JLolqVZAsPyRfIBeNvYw-82" value="&lt;font style=&quot;font-size: 15px;&quot;&gt;No Load&lt;/font&gt;" style="text;strokeColor=none;fillColor=none;html=1;fontSize=24;fontStyle=1;verticalAlign=middle;align=center;" parent="1" vertex="1">
          <mxGeometry x="536" y="554" width="134" height="20" as="geometry" />
        </mxCell>
        <mxCell id="JLolqVZAsPyRfIBeNvYw-83" value="&lt;font style=&quot;font-size: 15px;&quot;&gt;Transfromations&lt;/font&gt;" style="text;strokeColor=none;fillColor=none;html=1;fontSize=24;fontStyle=1;verticalAlign=middle;align=center;" parent="1" vertex="1">
          <mxGeometry x="536" y="588" width="135" height="20" as="geometry" />
        </mxCell>
        <mxCell id="JLolqVZAsPyRfIBeNvYw-84" value="&lt;ul&gt;&lt;li&gt;Data Integration&lt;/li&gt;&lt;li&gt;Aggergation&lt;/li&gt;&lt;li&gt;Business Logic&amp;nbsp;&lt;/li&gt;&lt;/ul&gt;" style="text;strokeColor=none;fillColor=none;html=1;verticalAlign=middle;overflow=hidden;spacing=-3;" parent="1" vertex="1">
          <mxGeometry x="536" y="608" width="140" height="60" as="geometry" />
        </mxCell>
        <mxCell id="JLolqVZAsPyRfIBeNvYw-85" value="&lt;ul&gt;&lt;li&gt;&lt;span style=&quot;background-color: transparent; color: light-dark(rgb(0, 0, 0), rgb(255, 255, 255));&quot;&gt;Star Schema&lt;/span&gt;&lt;/li&gt;&lt;li&gt;&lt;span style=&quot;background-color: transparent; color: light-dark(rgb(0, 0, 0), rgb(255, 255, 255));&quot;&gt;Flat table&amp;nbsp;&lt;/span&gt;&lt;/li&gt;&lt;li&gt;Aggergate Table&amp;nbsp;&amp;nbsp;&lt;/li&gt;&lt;/ul&gt;" style="text;strokeColor=none;fillColor=none;html=1;verticalAlign=middle;overflow=hidden;spacing=-5;" parent="1" vertex="1">
          <mxGeometry x="536" y="705" width="140" height="60" as="geometry" />
        </mxCell>
        <mxCell id="JLolqVZAsPyRfIBeNvYw-86" value="&lt;span style=&quot;color: rgb(255, 255, 255); font-family: Helvetica; font-size: 15px; font-style: normal; font-variant-ligatures: normal; font-variant-caps: normal; font-weight: 700; letter-spacing: normal; orphans: 2; text-align: center; text-indent: 0px; text-transform: none; widows: 2; word-spacing: 0px; -webkit-text-stroke-width: 0px; white-space: nowrap; background-color: rgb(27, 29, 30); text-decoration-thickness: initial; text-decoration-style: initial; text-decoration-color: initial; display: inline !important; float: none;&quot;&gt;Data Model&amp;nbsp;&lt;/span&gt;" style="text;whiteSpace=wrap;html=1;spacing=7;spacingTop=-1;" parent="1" vertex="1">
          <mxGeometry x="536" y="675" width="100" height="40" as="geometry" />
        </mxCell>
        <mxCell id="JLolqVZAsPyRfIBeNvYw-88" value="" style="image;aspect=fixed;html=1;points=[];align=center;fontSize=12;image=img/lib/azure2/analytics/Power_BI_Embedded.svg;" parent="1" vertex="1">
          <mxGeometry x="784.6" y="377" width="51" height="68" as="geometry" />
        </mxCell>
        <mxCell id="JLolqVZAsPyRfIBeNvYw-90" value="" style="sketch=0;html=1;aspect=fixed;strokeColor=none;shadow=0;fillColor=#3B8DF1;verticalAlign=top;labelPosition=center;verticalLabelPosition=bottom;shape=mxgraph.gcp2.search" parent="1" vertex="1">
          <mxGeometry x="775.8" y="485.58000000000004" width="69.3" height="70" as="geometry" />
        </mxCell>
        <mxCell id="JLolqVZAsPyRfIBeNvYw-92" value="" style="points=[];aspect=fixed;html=1;align=center;shadow=0;dashed=0;fillColor=#FF6A00;strokeColor=none;shape=mxgraph.alibaba_cloud.machine_learning;" parent="1" vertex="1">
          <mxGeometry x="780" y="614.92" width="59.8" height="60.16" as="geometry" />
        </mxCell>
        <mxCell id="JLolqVZAsPyRfIBeNvYw-94" value="&lt;b&gt;Machine learning&lt;/b&gt;" style="text;html=1;align=center;verticalAlign=middle;whiteSpace=wrap;rounded=0;" parent="1" vertex="1">
          <mxGeometry x="755.1" y="680" width="110" height="30" as="geometry" />
        </mxCell>
        <mxCell id="JLolqVZAsPyRfIBeNvYw-95" value="&lt;b&gt;PowerBI &amp;amp; Reports&lt;/b&gt;" style="text;html=1;align=center;verticalAlign=middle;whiteSpace=wrap;rounded=0;" parent="1" vertex="1">
          <mxGeometry x="747.1" y="447.58" width="125.6" height="30" as="geometry" />
        </mxCell>
        <mxCell id="JLolqVZAsPyRfIBeNvYw-96" value="&lt;b&gt;AD - Hoc&amp;nbsp;&lt;/b&gt;&lt;div&gt;&lt;b&gt;SQL Queries&lt;/b&gt;&lt;/div&gt;" style="text;html=1;align=center;verticalAlign=middle;whiteSpace=wrap;rounded=0;" parent="1" vertex="1">
          <mxGeometry x="764.9" y="560" width="90" height="30" as="geometry" />
        </mxCell>
        <mxCell id="JLolqVZAsPyRfIBeNvYw-97" value="" style="shape=singleArrow;whiteSpace=wrap;html=1;fillColor=#76608a;fontColor=#ffffff;strokeColor=#432D57;" parent="1" vertex="1">
          <mxGeometry x="125" y="550" width="55" height="40" as="geometry" />
        </mxCell>
        <mxCell id="JLolqVZAsPyRfIBeNvYw-98" value="" style="shape=singleArrow;whiteSpace=wrap;html=1;fillColor=#76608a;fontColor=#ffffff;strokeColor=#432D57;" parent="1" vertex="1">
          <mxGeometry x="480" y="550" width="55" height="40" as="geometry" />
        </mxCell>
        <mxCell id="JLolqVZAsPyRfIBeNvYw-99" value="" style="shape=singleArrow;whiteSpace=wrap;html=1;fillColor=#76608a;fontColor=#ffffff;strokeColor=#432D57;" parent="1" vertex="1">
          <mxGeometry x="685" y="548" width="55" height="40" as="geometry" />
        </mxCell>
        <mxCell id="JLolqVZAsPyRfIBeNvYw-100" value="" style="shape=singleArrow;whiteSpace=wrap;html=1;fillColor=#76608a;fontColor=#ffffff;strokeColor=#432D57;" parent="1" vertex="1">
          <mxGeometry x="310" y="550" width="55" height="40" as="geometry" />
        </mxCell>
        <mxCell id="U9CsZDDBWLItHgnRB4Fm-1" value="&lt;font style=&quot;color: rgb(0, 0, 0);&quot;&gt;DATA ARCHITECTURE&lt;/font&gt;" style="text;strokeColor=none;fillColor=#A4CCD9;html=1;fontSize=24;fontStyle=1;verticalAlign=middle;align=center;rounded=1;" vertex="1" parent="1">
          <mxGeometry x="240" y="200" width="440" height="40" as="geometry" />
        </mxCell>
      </root>
    </mxGraphModel>
  </diagram>
</mxfile>
